<svg width="80" height="80" viewBox="0 0 80 80" fill="none" xmlns="http://www.w3.org/2000/svg">
<circle cx="40" cy="40" r="39.5" stroke="white"/>
<path d="M39.4866 56V47.1016L32.6417 53.8896L31.9003 53.1478L39.4866 45.5615V40.5134H34.4385L26.8804 48.0714L26.139 47.3296L32.8984 40.5134H24V39.4866H32.8984L26.1104 32.6417L26.8522 31.9003L34.4385 39.4866H39.4866V34.4385L31.9286 26.8804L32.6704 26.139L39.4866 32.8697V24H40.5134V32.8697L47.3583 26.1104L48.0997 26.8522L40.5134 34.4385V39.4866H45.5615L53.1196 31.9286L53.861 32.6704L47.1303 39.4866H56V40.5134H47.1303L53.8896 47.3583L53.1478 48.0997L45.5615 40.5134H40.5134V45.5615L48.0997 53.1478L47.3583 53.8896L40.5134 47.1016V56H39.4866Z" fill="white"/>
</svg>
