<svg width="80" height="80" viewBox="0 0 80 80" fill="none" xmlns="http://www.w3.org/2000/svg">
<path d="M37.9167 45.1921V41.6689H41.0833V45.1921H37.9167ZM36 31.0066H43V28.596C43 28.2252 42.8611 27.8852 42.5833 27.5762C42.3056 27.2671 42 27.1126 41.6667 27.1126H37.3333C37 27.1126 36.6944 27.2671 36.4167 27.5762C36.1389 27.8852 36 28.2252 36 28.596V31.0066ZM27.3333 54C26.6708 54 26.1163 53.7517 25.6696 53.255C25.2232 52.7581 25 52.1411 25 51.404V43.9868H36.9167V45.0066C36.9167 45.362 37.0314 45.6672 37.2608 45.9222C37.4903 46.1772 37.7649 46.3046 38.0846 46.3046H40.9229C41.261 46.3046 41.5389 46.1772 41.7567 45.9222C41.9744 45.6672 42.0833 45.362 42.0833 45.0066V43.9868H54V51.404C54 52.1411 53.7768 52.7581 53.3304 53.255C52.8838 53.7517 52.3292 54 51.6667 54H27.3333ZM25 42.8742V33.6026C25 32.8656 25.2232 32.2485 25.6696 31.7516C26.1163 31.2549 26.6708 31.0066 27.3333 31.0066H35V28.596C35 27.8589 35.2232 27.2419 35.6696 26.745C36.1163 26.2483 36.6708 26 37.3333 26H41.6667C42.3292 26 42.8838 26.2483 43.3304 26.745C43.7768 27.2419 44 27.8589 44 28.596V31.0066H51.6667C52.3292 31.0066 52.8838 31.2549 53.3304 31.7516C53.7768 32.2485 54 32.8656 54 33.6026V42.8742H42.0833V41.8543C42.0833 41.4788 41.9732 41.1687 41.7529 40.9239C41.5324 40.6788 41.2532 40.5563 40.9154 40.5563H38.0771C37.7571 40.5563 37.4838 40.6788 37.2571 40.9239C37.0301 41.1687 36.9167 41.4788 36.9167 41.8543V42.8742H25Z" fill="white"/>
<circle cx="40" cy="40" r="39.5" stroke="white"/>
</svg>
