<svg width="80" height="80" viewBox="0 0 80 80" fill="none" xmlns="http://www.w3.org/2000/svg">
<path d="M38.8126 39.0234H37.4605C37.3536 39.0234 37.2772 38.9688 37.2314 38.8596C37.1855 38.7505 37.1932 38.6459 37.2543 38.5458L39.5803 34.5204C39.6185 34.4568 39.6644 34.4158 39.7178 34.3976C39.7713 34.3794 39.8286 34.384 39.8897 34.4113C39.9508 34.4386 39.9947 34.4818 40.0215 34.5409C40.0482 34.6 40.0578 34.666 40.0501 34.7388L39.7407 37.7134H41.3449C41.4519 37.7134 41.5282 37.7726 41.5741 37.8908C41.6199 38.0091 41.6085 38.1182 41.5397 38.2183L38.9387 41.9298C38.9005 41.9844 38.8546 42.0185 38.8012 42.0322C38.7477 42.0458 38.6942 42.039 38.6407 42.0117C38.5873 41.9844 38.5472 41.9435 38.5204 41.8889C38.4937 41.8343 38.4841 41.7706 38.4918 41.6978L38.8126 39.0234Z" fill="white"/>
<path d="M28.5474 48.8497C28.421 48.975 28.2708 49.0219 28.097 48.9906C27.9231 48.9593 27.7888 48.881 27.694 48.7558C26.2399 47.2529 25.0941 45.5387 24.2565 43.6132C23.4188 41.6877 23 39.5978 23 37.3435C23 35.0892 23.4346 32.968 24.3039 30.9799C25.1731 28.9917 26.3506 27.2619 27.8362 25.7903C29.3218 24.3188 31.0682 23.1525 33.0754 22.2915C35.0826 21.4305 37.2241 21 39.5 21C41.7759 21 43.9174 21.4305 45.9246 22.2915C47.9318 23.1525 49.6782 24.3188 51.1638 25.7903C52.6494 27.2619 53.8269 28.9917 54.6961 30.9799C55.5654 32.968 56 35.0892 56 37.3435C56 39.5665 55.5812 41.6486 54.7435 43.5897C53.9059 45.5309 52.7601 47.2529 51.306 48.7558C51.1796 48.881 51.0295 48.9593 50.8556 48.9906C50.6818 49.0219 50.5474 48.975 50.4526 48.8497C50.3262 48.7245 50.2866 48.5758 50.3341 48.4036C50.3815 48.2314 50.4684 48.0826 50.5948 47.9574C51.954 46.5798 53.0208 44.9908 53.7953 43.1905C54.5697 41.3902 54.9569 39.4412 54.9569 37.3435C54.9569 33.0854 53.4555 29.4692 50.4526 26.4948C47.4497 23.5204 43.7989 22.0332 39.5 22.0332C35.2011 22.0332 31.5503 23.5204 28.5474 26.4948C25.5445 29.4692 24.0431 33.0854 24.0431 37.3435C24.0431 39.4412 24.4224 41.3902 25.181 43.1905C25.9397 44.9908 26.9986 46.5798 28.3578 47.9574C28.4842 48.1139 28.579 48.2705 28.6422 48.427C28.7055 48.5836 28.6739 48.7245 28.5474 48.8497ZM33.9052 43.5428C33.7787 43.668 33.6444 43.715 33.5022 43.6837C33.3599 43.6524 33.2256 43.5897 33.0991 43.4958C32.3089 42.6818 31.6925 41.7581 31.25 40.7249C30.8075 39.6917 30.5862 38.5646 30.5862 37.3435C30.5862 34.9014 31.4555 32.8193 33.194 31.0973C34.9325 29.3753 37.0345 28.5143 39.5 28.5143C41.9655 28.5143 44.0675 29.3753 45.806 31.0973C47.5445 32.8193 48.4138 34.9014 48.4138 37.3435C48.4138 38.5333 48.1925 39.6526 47.75 40.7014C47.3075 41.7503 46.6911 42.6818 45.9009 43.4958C45.7744 43.621 45.6401 43.6915 45.4978 43.7071C45.3556 43.7228 45.2213 43.668 45.0948 43.5428C45 43.4175 44.9526 43.2845 44.9526 43.1436C44.9526 43.0027 45.0158 42.8853 45.1422 42.7913C45.8376 42.1025 46.3829 41.2885 46.778 40.3492C47.1731 39.4099 47.3707 38.408 47.3707 37.3435C47.3707 35.1832 46.6042 33.3437 45.0711 31.8252C43.5381 30.3067 41.681 29.5475 39.5 29.5475C37.319 29.5475 35.4619 30.3067 33.9289 31.8252C32.3958 33.3437 31.6293 35.1832 31.6293 37.3435C31.6293 38.408 31.8269 39.4099 32.222 40.3492C32.6171 41.2885 33.1624 42.1025 33.8578 42.7913C33.9842 42.9166 34.0553 43.0418 34.0711 43.1671C34.0869 43.2923 34.0316 43.4175 33.9052 43.5428Z" fill="white"/>
<path d="M28.5474 48.8497C28.421 48.975 28.2708 49.0219 28.097 48.9906C27.9231 48.9593 27.7888 48.881 27.694 48.7558C26.2399 47.2529 25.0941 45.5387 24.2565 43.6132C23.4188 41.6877 23 39.5978 23 37.3435C23 35.0892 23.4346 32.968 24.3039 30.9799C25.1731 28.9917 26.3506 27.2619 27.8362 25.7903C29.3218 24.3188 31.0682 23.1525 33.0754 22.2915C35.0826 21.4305 37.2241 21 39.5 21C41.7759 21 43.9174 21.4305 45.9246 22.2915C47.9318 23.1525 49.6782 24.3188 51.1638 25.7903C52.6494 27.2619 53.8269 28.9917 54.6961 30.9799C55.5654 32.968 56 35.0892 56 37.3435C56 39.5665 55.5812 41.6486 54.7435 43.5897C53.9059 45.5309 52.7601 47.2529 51.306 48.7558C51.1796 48.881 51.0295 48.9593 50.8556 48.9906C50.6818 49.0219 50.5474 48.975 50.4526 48.8497C50.3262 48.7245 50.2866 48.5758 50.3341 48.4036C50.3815 48.2314 50.4684 48.0826 50.5948 47.9574C51.954 46.5798 53.0208 44.9908 53.7953 43.1905C54.5697 41.3902 54.9569 39.4412 54.9569 37.3435C54.9569 33.0854 53.4555 29.4692 50.4526 26.4948C47.4497 23.5204 43.7989 22.0332 39.5 22.0332C35.2011 22.0332 31.5503 23.5204 28.5474 26.4948C25.5445 29.4692 24.0431 33.0854 24.0431 37.3435C24.0431 39.4412 24.4224 41.3902 25.181 43.1905C25.9397 44.9908 26.9986 46.5798 28.3578 47.9574C28.4842 48.1139 28.579 48.2705 28.6422 48.427C28.7055 48.5836 28.6739 48.7245 28.5474 48.8497ZM33.9052 43.5428C33.7787 43.668 33.6444 43.715 33.5022 43.6837C33.3599 43.6524 33.2256 43.5897 33.0991 43.4958C32.3089 42.6818 31.6925 41.7581 31.25 40.7249C30.8075 39.6917 30.5862 38.5646 30.5862 37.3435C30.5862 34.9014 31.4555 32.8193 33.194 31.0973C34.9325 29.3753 37.0345 28.5143 39.5 28.5143C41.9655 28.5143 44.0675 29.3753 45.806 31.0973C47.5445 32.8193 48.4138 34.9014 48.4138 37.3435C48.4138 38.5333 48.1925 39.6526 47.75 40.7014C47.3075 41.7503 46.6911 42.6818 45.9009 43.4958C45.7744 43.621 45.6401 43.6915 45.4978 43.7071C45.3556 43.7228 45.2213 43.668 45.0948 43.5428C45 43.4175 44.9526 43.2845 44.9526 43.1436C44.9526 43.0027 45.0158 42.8853 45.1422 42.7913C45.8376 42.1025 46.3829 41.2885 46.778 40.3492C47.1731 39.4099 47.3707 38.408 47.3707 37.3435C47.3707 35.1832 46.6042 33.3437 45.0711 31.8252C43.5381 30.3067 41.681 29.5475 39.5 29.5475C37.319 29.5475 35.4619 30.3067 33.9289 31.8252C32.3958 33.3437 31.6293 35.1832 31.6293 37.3435C31.6293 38.408 31.8269 39.4099 32.222 40.3492C32.6171 41.2885 33.1624 42.1025 33.8578 42.7913C33.9842 42.9166 34.0553 43.0418 34.0711 43.1671C34.0869 43.2923 34.0316 43.4175 33.9052 43.5428Z" fill="white"/>
<rect x="39" y="49.5" width="1" height="10" rx="0.5" fill="white"/>
<circle cx="40" cy="40" r="39.5" stroke="white"/>
</svg>
