<svg width="80" height="80" viewBox="0 0 80 80" fill="none" xmlns="http://www.w3.org/2000/svg">
<circle cx="40" cy="40" r="39.5" stroke="white"/>
<path d="M40 56.1053C42.6906 55.1858 44.9436 53.4131 46.7588 50.7872C48.5738 48.1613 49.6318 45.2298 49.9328 41.9927H40V27.9977L30.847 31.621C30.5734 31.7384 30.3613 31.9144 30.2108 32.1491C30.0603 32.3838 29.9851 32.6479 29.9851 32.9413V40.3499C29.9851 40.6333 29.9896 40.8973 29.9986 41.142C30.0079 41.3864 30.0308 41.67 30.0672 41.9927H40V56.1053ZM40 57C39.8632 57 39.7219 56.9853 39.576 56.956C39.4299 56.9267 39.2884 56.8826 39.1516 56.824C36.0232 55.5037 33.5491 53.3204 31.7295 50.274C29.9098 47.2274 29 43.9193 29 40.3499V32.9853C29 32.4672 29.1413 31.9904 29.424 31.555C29.7069 31.1199 30.0626 30.8095 30.4912 30.6237L39.1926 27.176C39.4756 27.0587 39.7447 27 40 27C40.2553 27 40.5244 27.0587 40.8074 27.176L49.5088 30.6237C49.9374 30.8095 50.2931 31.1199 50.576 31.555C50.8587 31.9904 51 32.4672 51 32.9853V40.3499C51 43.9193 50.0902 47.2274 48.2705 50.274C46.4509 53.3204 43.9768 55.5037 40.8484 56.824C40.7116 56.8826 40.5701 56.9267 40.424 56.956C40.2781 56.9853 40.1368 57 40 57Z" fill="white"/>
</svg>
